# xmcd CD database file
#
# Track frame offsets:
#	150
#	21098
#	43542
#	78148
#	91285
#	109781
#	132124
#	164344
#	175969
#	204359
#	231036
#	242913
#	265222
#	283802
#	302264
#	316661
#
# Disc length: 4432 seconds
#
# Revision: 2
# Processed by: cddbd v1.5.2PL0 Copyright (c) Steve Scherf et al.
# Submitted via: CdAid (MTCDDB.DLL V2003.12.21)
#
DISCID=c6114e10
DTITLE=Various Artist - BLUES BALLADS Vol.1
DYEAR=1998
DGENRE=Blues
TTITLE0=JOHN LEE HOOKER feat.SANTANA - Chill Out
TTITLE1=B.B.KING feat.TRACY CHAPMAN - The Trill Is Gone
TTITLE2=STEVIE RAY VAUGHAN - Tin Pan Alley(live)
TTITLE3=PETER GREEN's FLEETWOOD MAC - Looking For Somebody
TTITLE4=RAY CHARLES - Angelina
TTITLE5=LONG JOHN HUNTER - Trouble On The Line
TTITLE6=LUTHER ALLISON - Bad News Coming(live)
TTITLE7=BOB'STEADY ROLLIN' MARGOLIN - Bout Out
TTITLE8=JOHNNY WINTER - Life Is Hard
TTITLE9=BLUES COMPANY - Silent Nite
TTITLE10=TAJ MAHAL - Lovin' In My Baby's Eyes
TTITLE11=PETER GREEN - Carry My Love
TTITLE12=JOHN CAMPBELL - Angel Of Sorrow
TTITLE13=ERIC CLAPTON - Better Make It Through Today
TTITLE14=SANTANA BAND - Black Magic Woman
TTITLE15=JUNIOR WELLS&BUDDY GUY - We're Ready
EXTD=ID3G:   0 YEAR: 1998
EXTT0=
EXTT1=
EXTT2=
EXTT3=
EXTT4=
EXTT5=
EXTT6=
EXTT7=
EXTT8=
EXTT9=
EXTT10=
EXTT11=
EXTT12=
EXTT13=
EXTT14=
EXTT15=
PLAYORDER=
